<svg width="150" height="185" viewBox="0 0 150 185" fill="none" xmlns="http://www.w3.org/2000/svg">
<path d="M145.301 62.9219C133.012 70.5159 125.422 83.5342 125.422 97.999C125.422 114.272 135.181 129.098 150 135.246C147.108 144.648 142.771 153.327 137.349 161.283C129.398 172.493 121.084 184.065 108.795 184.065C96.506 184.065 92.8916 176.832 78.4337 176.832C64.3373 176.832 59.2771 184.426 47.7108 184.426C36.1446 184.426 28.1928 173.939 19.1566 160.921C7.22892 142.84 0.361446 121.866 0 99.8071C0 64.0068 23.1325 44.8409 46.2651 44.8409C58.5542 44.8409 68.6747 52.7965 76.2651 52.7965C83.494 52.7965 95.0602 44.4793 108.795 44.4793C123.253 44.1176 136.988 50.9884 145.301 62.9219ZM102.289 29.2912C108.434 22.0588 111.687 13.0183 112.048 3.6162C112.048 2.53134 112.048 1.08486 111.687 0C101.205 1.08486 91.4458 6.14754 84.5783 14.1032C78.4337 20.974 74.8193 29.6528 74.4578 39.055C74.4578 40.1398 74.4578 41.2247 74.8193 42.3095C75.5422 42.3095 76.6265 42.6712 77.3494 42.6712C87.1084 41.9479 96.1446 36.8852 102.289 29.2912Z" fill="white"/>
</svg>
