<svg width="150" height="151" viewBox="0 0 150 151" fill="none" xmlns="http://www.w3.org/2000/svg">
<path d="M141 76.7756C141 71.9006 140.563 67.2131 139.75 62.7131H75V89.3069H112C110.406 97.9006 105.563 105.182 98.2813 110.057V127.307H120.5C133.5 115.338 141 97.7131 141 76.7756Z" fill="#4285F4"/>
<path d="M75 143.963C93.5625 143.963 109.125 137.807 120.5 127.307L98.2812 110.057C92.125 114.182 84.25 116.619 75 116.619C57.0938 116.619 41.9375 104.526 36.5312 88.2756H13.5625V106.088C24.875 128.557 48.125 143.963 75 143.963Z" fill="#34A853"/>
<path d="M36.5313 88.2756C35.1563 84.1506 34.375 79.7444 34.375 75.2131C34.375 70.6819 35.1563 66.2756 36.5313 62.1506V44.3381H13.5625C8.75 53.9185 6.24576 64.492 6.25001 75.2131C6.25001 86.3069 8.90626 96.8069 13.5625 106.088L36.5313 88.2756Z" fill="#FBBC05"/>
<path d="M75 33.8069C85.0938 33.8069 94.1562 37.2756 101.281 44.0881L121 24.3694C109.094 13.2756 93.5312 6.46313 75 6.46313C48.125 6.46313 24.875 21.8694 13.5625 44.3381L36.5312 62.1506C41.9375 45.9006 57.0938 33.8069 75 33.8069Z" fill="#EA4335"/>
</svg>
