<svg width="406" height="94" viewBox="0 0 406 94" fill="none" xmlns="http://www.w3.org/2000/svg">
<path d="M258.03 58.9247C250.96 58.9247 245.208 53.1729 245.208 46.1043C245.208 39.0357 250.96 33.2839 258.03 33.2839C265.099 33.2839 270.851 39.0357 270.851 46.1043C270.851 53.2421 265.03 58.9247 258.03 58.9247ZM258.03 25.6609C246.733 25.6609 237.584 34.8084 237.584 46.1043C237.584 57.4001 246.733 66.5477 258.03 66.5477C269.327 66.5477 278.475 57.4001 278.475 46.1043C278.475 34.8777 269.327 25.6609 258.03 25.6609Z" fill="white"/>
<path d="M233.01 59.9643H234.673V67.6566H233.01C224.208 67.6566 217 60.4494 217 51.6483V16.5134H224.693V26.7698H234.604V34.4621H224.693V51.7176C224.693 56.2221 228.436 59.9643 233.01 59.9643Z" fill="white"/>
<path d="M326.713 58.9247C319.643 58.9247 313.891 53.1729 313.891 46.1043C313.891 39.0357 319.643 33.2839 326.713 33.2839C333.782 33.2839 339.534 39.0357 339.534 46.1043C339.465 53.2421 333.713 58.9247 326.713 58.9247ZM326.713 25.6609C315.416 25.6609 306.267 34.8084 306.267 46.1043C306.267 57.4001 315.416 66.5477 326.713 66.5477C338.01 66.5477 347.158 57.4001 347.158 46.1043C347.158 34.8777 338.01 25.6609 326.713 25.6609Z" fill="white"/>
<path d="M385.554 58.9247C378.485 58.9247 372.733 53.1729 372.733 46.1043C372.733 39.0357 378.485 33.2839 385.554 33.2839C392.624 33.2839 398.376 39.0357 398.376 46.1043C398.376 53.2421 392.554 58.9247 385.554 58.9247ZM385.554 25.6609C374.257 25.6609 365.109 34.8084 365.109 46.1043C365.109 57.4001 374.257 66.5477 385.554 66.5477C390.545 66.5477 395.119 64.7459 398.653 61.766V65.7854H406V46.728C406 46.52 406 46.3122 406 46.1043C406 34.8777 396.851 25.6609 385.554 25.6609Z" fill="white"/>
<path d="M299.614 25.6609H303.287V33.3532H299.614C295.04 33.3532 291.297 37.0954 291.297 41.6691V46.6587V56.1527V66.0626H283.604V41.6691C283.604 32.8681 290.812 25.6609 299.614 25.6609Z" fill="white"/>
<path d="M359.98 15.4739H352.287V65.9241H359.98V15.4739Z" fill="white"/>
<path d="M165.851 42.7087V67.0328H158.158V42.7087C158.158 38.1349 154.416 34.3927 149.842 34.3927C145.267 34.3927 141.525 38.1349 141.525 42.7087V67.0328H133.832V42.7087C133.832 38.1349 130.089 34.3927 125.515 34.3927C120.941 34.3927 117.198 38.1349 117.198 42.7087V67.0328H109.505V42.7087C109.505 33.9076 116.713 26.7004 125.445 26.7004C130.366 26.7004 134.663 28.8487 137.643 32.3137C140.624 28.8487 144.921 26.7004 149.842 26.7004C158.643 26.7004 165.851 33.9076 165.851 42.7087Z" fill="white"/>
<path d="M191.495 59.9643C184.426 59.9643 178.673 54.2124 178.673 47.1439C178.673 40.0753 184.426 34.3234 191.495 34.3234C198.564 34.3234 204.317 40.0753 204.317 47.1439C204.317 54.2124 198.495 59.9643 191.495 59.9643ZM191.495 26.7004C180.129 26.7004 170.98 35.848 170.98 47.1439C170.98 58.4397 180.129 67.5872 191.426 67.5872C202.723 67.5872 211.871 58.4397 211.871 47.1439C211.94 35.9173 202.792 26.7004 191.495 26.7004Z" fill="white"/>
<path d="M46.5049 0.713135C20.7921 0.713135 0 21.503 0 47.2132C0 72.9234 20.7921 93.7133 46.5049 93.7133C72.2178 93.7133 93.0099 72.9234 93.0099 47.2132C93.0099 21.6416 72.4951 0.713135 46.5049 0.713135Z" fill="black"/>
<path d="M60.3662 12.1475L46.5741 57.8853L46.5047 57.9546L46.3662 57.8853L32.5741 12.1475L14.7622 70.7057H18.0889C18.0889 70.7057 20.3068 60.5187 23.98 54.4203C25.9899 51.0939 29.0394 48.3912 33.1285 48.4605C36.0394 48.5299 38.5345 50.1237 41.6533 54.4896C42.3464 55.4598 43.1781 57.0536 44.0097 58.5782C45.3265 61.1423 46.4355 63.7757 46.4355 63.7757C46.4355 63.7757 49.3464 57.1229 51.2176 54.4896C54.3365 50.1237 56.8315 48.5298 59.7424 48.4605C63.8315 48.3911 66.9503 51.0939 68.8909 54.4203C72.5642 60.5187 74.782 70.7057 74.782 70.7057H78.1087L60.3662 12.1475Z" fill="white"/>
</svg>
