<svg width="288" height="69" viewBox="0 0 288 69" fill="none" xmlns="http://www.w3.org/2000/svg">
<path fill-rule="evenodd" clip-rule="evenodd" d="M34.6438 43.766C20.1582 43.6022 10.7755 36.7202 10.7755 26.3154C10.7755 15.9106 20.1582 9.02868 34.6438 8.86482C49.1293 9.02868 58.512 15.9106 58.512 26.3154C58.512 36.7202 49.1293 43.6841 34.6438 43.766ZM35.1376 0.42627C35.1376 0.42627 34.8084 0.42627 34.7261 0.42627C34.5615 0.42627 34.3145 0.42627 34.3145 0.42627C14.3969 0.75398 0.569824 11.4046 0.569824 26.3154C0.569824 41.2263 14.3969 51.8769 34.2322 52.2046C34.2322 52.2046 34.5615 52.2046 34.6438 52.2046C34.8084 52.2046 35.0553 52.2046 35.0553 52.2046C54.8906 51.9588 68.7177 41.2263 68.7177 26.3154C68.7177 11.4046 54.8906 0.75398 35.1376 0.42627Z" fill="white"/>
<path fill-rule="evenodd" clip-rule="evenodd" d="M253.82 43.766C239.335 43.6022 229.952 36.7202 229.952 26.3154C229.952 15.9106 239.335 9.02868 253.82 8.86482C268.306 9.02868 277.688 15.9106 277.688 26.3154C277.688 36.7202 268.306 43.6841 253.82 43.766ZM254.232 0.42627C254.232 0.42627 253.902 0.42627 253.82 0.42627C253.655 0.42627 253.409 0.42627 253.409 0.42627C233.573 0.75398 219.746 11.4046 219.746 26.3154C219.746 41.2263 233.573 51.8769 253.409 52.2046C253.409 52.2046 253.738 52.2046 253.82 52.2046C253.985 52.2046 254.232 52.2046 254.232 52.2046C274.067 51.8769 287.894 41.2263 287.894 26.3154C287.894 11.4046 274.067 0.75398 254.232 0.42627Z" fill="white"/>
<path fill-rule="evenodd" clip-rule="evenodd" d="M180.899 43.766C166.413 43.6022 157.03 36.7202 157.03 26.3154C157.03 15.9106 166.413 9.02868 180.899 8.86482C195.384 9.02868 204.767 15.9106 204.767 26.3154C204.767 36.7202 195.384 43.6841 180.899 43.766ZM181.31 0.42627C181.31 0.42627 180.981 0.42627 180.899 0.42627C180.734 0.42627 180.487 0.42627 180.487 0.42627C171.022 0.590125 162.956 3.04796 157.113 7.22627V2.8841H146.825V68.4263H157.113V45.4046C162.956 49.5829 171.104 52.1227 180.487 52.2046C180.487 52.2046 180.816 52.2046 180.899 52.2046C181.063 52.2046 181.31 52.2046 181.31 52.2046C201.145 51.8769 214.973 41.2263 214.973 26.3154C214.973 11.4046 201.145 0.75398 181.31 0.42627Z" fill="white"/>
<path fill-rule="evenodd" clip-rule="evenodd" d="M107.812 43.766C93.3265 43.6022 83.9438 36.7202 83.9438 26.3154C83.9438 15.9106 93.3265 9.02868 107.812 8.86482C122.298 9.02868 131.68 15.9106 131.68 26.3154C131.68 36.7202 122.298 43.6841 107.812 43.766ZM108.224 0.42627C108.224 0.42627 107.894 0.42627 107.812 0.42627C107.647 0.42627 107.4 0.42627 107.4 0.42627C97.9355 0.590125 89.8697 3.04796 84.0261 7.22627V2.8841H73.6558V68.4263H83.9438V45.4046C89.7874 49.5829 97.9355 52.1227 107.318 52.2046C107.318 52.2046 107.647 52.2046 107.73 52.2046C107.894 52.2046 108.141 52.2046 108.141 52.2046C127.977 51.8769 141.804 41.2263 141.804 26.3154C141.804 11.4046 128.059 0.75398 108.224 0.42627Z" fill="white"/>
</svg>
