<svg width="228" height="69" viewBox="0 0 228 69" fill="none" xmlns="http://www.w3.org/2000/svg">
<g clip-path="url(#clip0_133_22)">
<path d="M0.430176 0.42627H227.43V68.4263H0.430176V0.42627Z" fill="#FFC915"/>
<path d="M94.1246 20.6816C97.6809 20.6816 101.111 21.8841 103.709 24.0123V21.1664H108.583V52.1378H103.709V49.3045C101.155 51.4201 97.7251 52.6164 94.1246 52.6164C89.7107 52.6164 85.694 50.9856 82.8187 48.0264C79.9686 45.1049 78.4048 41.0753 78.4048 36.6741C78.4048 32.2667 79.9749 28.2245 82.8187 25.2904C85.7004 22.3186 89.717 20.6816 94.1246 20.6816ZM60.3836 20.5682C64.375 20.5682 67.9944 22.0227 70.5859 24.6734C73.3415 27.4941 74.8107 31.4545 74.8422 36.139V37.7319H49.7398C50.0424 43.5497 54.4879 47.869 60.2701 47.869C64.4191 47.869 67.389 46.0997 69.6212 42.303L69.8923 41.8434L74.1171 44.5571L73.8711 44.979C71.0084 49.8964 66.3045 52.4967 60.2637 52.4967C51.1522 52.4967 44.7899 45.9423 44.7899 36.5608C44.7899 27.2927 51.3477 20.5682 60.3836 20.5682ZM190.045 20.5682C194.036 20.5682 197.655 22.0227 200.247 24.6734C203.003 27.4941 204.472 31.4545 204.503 36.139V37.7319H179.401C179.704 43.5497 184.149 47.869 189.931 47.869C194.08 47.869 197.05 46.0997 199.282 42.303L199.553 41.8434L203.778 44.5571L203.532 44.979C200.67 49.8964 195.966 52.4967 189.925 52.4967C180.813 52.4967 174.451 45.9423 174.445 36.5608C174.445 27.2927 181.009 20.5682 190.045 20.5682ZM42.9109 21.1034V25.7312H28.7864V52.1315H23.8555V21.1034H42.9109ZM158.794 20.6816C165.857 20.6816 170.245 25.5234 170.245 33.3182V52.0749H165.314V33.3182C165.314 28.4512 162.521 25.3093 158.195 25.3093C152.634 25.3093 150.654 29.1375 150.654 32.7201V52.0812H145.723V33.3245C145.723 28.3819 143.018 25.3156 138.661 25.3156C135.073 25.3156 131.239 28.0986 131.239 32.2416V52.0623H126.308V21.0971H131.239V24.1004C133.276 21.8841 136.176 20.6816 139.562 20.6816C144.575 20.6816 147.318 23.2127 148.794 25.6116C151.039 22.4697 154.633 20.6816 158.794 20.6816ZM119.908 11.9612V52.0749H114.977V11.9612H119.908ZM93.8787 25.6116C87.8695 25.6116 83.3358 30.3716 83.3358 36.6804C83.3358 42.9578 87.8695 47.6864 93.8787 47.6927C100.115 47.6927 104.302 43.2664 104.302 36.6804C104.302 30.063 100.115 25.6116 93.8787 25.6116ZM60.2701 25.1897C55.3013 25.1897 51.1522 28.489 49.9668 33.2867H69.8293C68.9591 28.4197 65.1884 25.1897 60.2701 25.1897ZM189.925 25.1897C184.956 25.1897 180.807 28.489 179.622 33.2867H199.484C198.614 28.4197 194.843 25.1897 189.925 25.1897Z" fill="#111111"/>
</g>
<defs>
<clipPath id="clip0_133_22">
<rect width="227" height="68" fill="white" transform="translate(0.430176 0.42627)"/>
</clipPath>
</defs>
</svg>
