<svg width="385" height="71" viewBox="0 0 385 71" fill="none" xmlns="http://www.w3.org/2000/svg">
<path d="M14.6283 19.182C14.3456 17.839 14.4163 16.4961 14.5576 15.7407C14.911 13.6424 16.1123 11.3762 19.5751 11.3762C22.8258 11.3762 24.6632 13.7263 24.6632 17.3354C24.6632 18.5105 24.6632 21.3642 24.6632 21.3642H38.3728V16.7479C38.4435 2.47932 27.6312 0.213135 19.8577 0.213135C10.1055 0.213135 2.12004 4.07405 0.636013 14.7335C0.212004 17.6712 0.141336 20.2731 0.77735 23.5465C3.18007 36.8918 22.7551 40.7527 25.5819 49.2299C26.1472 50.8246 25.9352 52.839 25.7232 54.098C25.2992 56.2803 24.0272 58.5465 20.3524 58.5465C16.8897 58.5465 14.8403 56.1964 14.8403 52.5872V46.2923H0V51.3282C0 65.9326 9.68153 70.2971 19.9991 70.2971C29.9633 70.2971 38.0901 66.2683 39.4328 55.357C40.0688 49.7335 39.5742 46.0405 39.3622 44.6975C37.1008 30.8486 16.183 26.8198 14.6283 19.182ZM193.631 19.2659C193.419 18.0069 193.489 16.58 193.56 15.9086C193.984 13.8103 195.115 11.5441 198.577 11.5441C201.758 11.5441 203.595 13.8942 203.595 17.4194C203.595 18.5944 203.595 21.4481 203.595 21.4481H217.163V16.9158C217.163 2.81505 206.563 0.632799 198.86 0.632799C189.179 0.632799 181.264 4.40978 179.78 14.9853C179.426 17.839 179.285 20.441 179.921 23.7143C182.253 36.8918 201.616 40.7527 204.443 49.146C204.938 50.7407 204.796 52.7551 204.514 53.9302C204.09 56.1124 202.888 58.2947 199.213 58.2947C195.821 58.2947 193.701 55.9445 193.701 52.4194V46.1244H179.073V51.0764C179.073 65.5129 188.613 69.8774 198.86 69.8774C208.683 69.8774 216.81 65.8486 218.082 55.1052C218.718 49.4817 218.223 45.8726 218.011 44.5297C215.82 30.9326 195.185 26.9038 193.631 19.2659ZM318.572 54.9374L305.64 2.31146H285.217V67.0237H298.714L297.937 12.7191L311.858 67.0237H331.434V2.31146H317.865L318.572 54.9374ZM58.9372 2.31146L48.6903 67.6952H63.5307L71.2335 7.17956L78.7243 67.6952H93.4939L83.3884 2.31146H58.9372ZM142.043 2.31146L135.117 53.4266L128.192 2.31146H105.72L104.518 67.6952H118.298L118.652 7.17956L128.121 67.6952H142.043L151.512 7.17956L151.866 67.6952H165.646L164.445 2.31146H142.043ZM269.952 2.31146H256.031V50.6568C256.031 51.4961 256.031 52.4194 255.889 53.1748C255.607 54.7695 254.476 57.9589 250.589 57.9589C246.773 57.9589 245.642 54.8534 245.36 53.1748C245.218 52.5033 245.218 51.4961 245.218 50.6568V2.31146H231.297V49.146C231.297 50.321 231.367 52.839 231.438 53.4266C232.428 65.5968 240.484 69.6256 250.589 69.6256C260.695 69.6256 268.822 65.6808 269.811 53.4266C269.882 52.7551 270.023 50.321 269.952 49.146V2.31146ZM365.496 30.9326V40.5009H371.149V49.9853C371.149 50.8246 371.149 51.7479 371.008 52.5033C370.796 54.2659 369.382 57.2875 365.354 57.2875C361.397 57.2875 359.983 54.2659 359.771 52.5033C359.701 51.7479 359.63 50.8246 359.63 49.9853V20.1052C359.63 19.0141 359.701 17.923 359.913 16.9997C360.195 15.405 361.397 12.2995 365.354 12.2995C369.594 12.2995 370.584 15.5728 370.866 16.9997C371.008 17.923 371.008 19.5177 371.008 19.5177V23.1268H384.859V20.9445C384.859 20.9445 384.929 18.6784 384.788 16.58C383.728 4.40978 375.177 0.548866 365.425 0.548866C355.673 0.548866 347.334 4.49371 346.133 16.664C345.991 17.7551 345.85 19.7695 345.85 21.0285V48.4745C345.85 49.6496 345.85 50.5728 346.062 52.7551C346.981 64.6736 355.673 68.8702 365.425 68.8702C375.248 68.8702 383.869 64.6736 384.788 52.7551C384.929 50.5728 385 49.6496 385 48.4745V30.9326H365.496Z" fill="white"/>
</svg>
