<svg width="333" height="84" viewBox="0 0 333 84" fill="none" xmlns="http://www.w3.org/2000/svg">
<path fill-rule="evenodd" clip-rule="evenodd" d="M300.189 70.1332H271.703C255.691 70.1332 254.266 57.6025 254.266 53.7638C254.266 49.9366 255.691 37.3943 271.703 37.3943H300.189C316.201 37.3943 317.626 49.925 317.626 53.7638C317.614 57.6025 316.201 70.1332 300.189 70.1332ZM300.189 23.6187H271.703C242.107 23.6187 239.474 46.7088 239.474 53.7753C239.474 60.8303 242.107 83.932 271.703 83.932H300.189C329.786 83.932 332.43 60.8418 332.43 53.7753C332.418 46.7088 329.786 23.6187 300.189 23.6187Z" fill="white"/>
<path fill-rule="evenodd" clip-rule="evenodd" d="M233.751 25.0249H224.513C220.564 25.0249 219.743 25.6705 218.222 27.8262C216.7 29.9818 190.292 68.4731 190.292 68.4731C189.446 69.6605 188.553 70.1331 187.442 70.1331C186.331 70.1331 185.437 69.6489 184.592 68.4731C184.592 68.4731 158.183 29.9818 156.662 27.8262C155.14 25.6705 154.319 25.0249 150.371 25.0249H141.133C139.008 25.0249 138.042 26.6157 139.37 28.5524C140.71 30.4891 170.911 74.2716 170.911 74.2716C175.801 81.1421 179.4 83.9203 187.442 83.9203C195.484 83.9203 199.07 81.1421 203.973 74.2716C203.973 74.2716 234.173 30.4891 235.514 28.5524C236.842 26.6157 235.876 25.0249 233.751 25.0249Z" fill="white"/>
<path fill-rule="evenodd" clip-rule="evenodd" d="M111.137 28.7599C111.137 26.0855 112.248 25.0249 115.049 25.0249H122.029C124.83 25.0249 125.941 26.0855 125.941 28.7599V80.1853C125.941 82.8598 124.83 83.9203 122.029 83.9203H115.049C112.248 83.9203 111.137 82.8598 111.137 80.1853V28.7599Z" fill="white"/>
<path fill-rule="evenodd" clip-rule="evenodd" d="M95.922 25.0249H86.6844C82.7357 25.0249 81.9146 25.6705 80.3931 27.8262C78.8716 29.9818 52.4629 68.4731 52.4629 68.4731C51.6176 69.6605 50.724 70.1331 49.6131 70.1331C48.5022 70.1331 47.6086 69.6489 46.7633 68.4731C46.7633 68.4731 20.3546 29.9818 18.8331 27.8262C17.3116 25.6705 16.4905 25.0249 12.5418 25.0249H3.31628C0.949511 25.0249 0.224991 26.6157 1.55328 28.5524C2.89364 30.4891 33.094 74.2716 33.094 74.2716C37.9846 81.1421 41.583 83.9203 49.6252 83.9203C57.6673 83.9203 61.2537 81.1421 66.1563 74.2716C66.1563 74.2716 96.3567 30.4891 97.6971 28.5524C99.0253 26.6157 98.3008 25.0249 95.922 25.0249Z" fill="white"/>
<path fill-rule="evenodd" clip-rule="evenodd" d="M110.497 13.2551C108.227 11.0879 108.227 9.35874 110.497 7.19152L115.363 2.54583C117.634 0.378605 119.445 0.378605 121.715 2.54583L126.581 7.19152C128.852 9.35874 128.852 11.0879 126.581 13.2551L121.715 17.9008C119.445 20.068 117.634 20.068 115.363 17.9008L110.497 13.2551Z" fill="white"/>
</svg>
